<?xml version="1.0" encoding="utf-8"?>
<!-- Generator: Adobe Illustrator 23.0.6, SVG Export Plug-In . SVG Version: 6.00 Build 0)  -->
<svg version="1.1" xmlns="http://www.w3.org/2000/svg" xmlns:xlink="http://www.w3.org/1999/xlink" x="0px" y="0px"
	 viewBox="0 0 1882.2 341.2" style="enable-background:new 0 0 1882.2 341.2;" xml:space="preserve">
<style type="text/css">
	.st0{fill:#FFFFFF;}
	.st1{fill:#020A0A;}
	.st2{fill:#D1D1D1;}
	.st3{fill:#004BBE;}
</style>
<g id="Ebene_1">
	<g>
		<path class="st3" d="M1787.7,249.8c2.7,7.3,6.7,13.3,11.8,17.8c5.1,4.5,11.3,7.7,18.2,9.7c7,2,14.7,3,23,3c0,0,0,0,0.1,0
			c8.4,0,16-0.9,22.4-2.6c6.4-1.7,12.5-4.2,18.1-7.3l0-36.2c-8.9,4.3-18.2,6.5-27.8,6.5c0,0,0,0,0,0c-7.9,0-14.1-2-18.4-6
			c-4.4-4-6.6-10.5-6.6-19.5l0-98.5l53.5,0l0-37.8l-53.5,0l0-54.7l-45,0l0,54.7l-25.3,0l0,37.8l25.3,0l0,105.6
			C1783.5,233.2,1784.9,242.5,1787.7,249.8z"/>
		<path class="st3" d="M1644.8,115.4C1644.8,115.4,1644.8,115.4,1644.8,115.4c13.6,0,24.2,4.3,31.6,12.8
			c7.4,8.5,11.1,20.7,11.1,36.3l0,112.4l45,0l0.1-126.2c0-23.1-6.1-41.8-18.3-55.5c-12.1-13.7-29.6-20.6-51.9-20.6c0,0,0,0,0,0
			c-7.7,0-14.6,1-20.7,2.8c-6.1,1.9-11.7,4.5-16.8,7.7c-5.1,3.3-9.6,7-13.4,11.1c-3.8,4.1-7.4,8.6-10.7,13.4l-0.9,1.4l0-108.6l-45,0
			l-0.1,274.3l45,0l0-111.6c0-15.6,4.2-27.9,12.5-36.6C1620.6,119.8,1631.5,115.4,1644.8,115.4z"/>
		<path class="st3" d="M1503.7,283.3c4.9-14,7.4-26.8,7.6-37.8c0.5-30.8,0.6-108.5,0.7-150.2c0-11.1,0-19.4,0-23.4l0-3.5l-42.9,0
			l0,11.3l-6-3.3c-45.6-25.1-93.8-8.9-117.8,20.1c-27.2,32.8-28.9,78.1-4.3,112.6c11.9,16.6,27.5,28.1,46.5,34
			c27.6,8.6,52.1,6,74.9-8l4.7-2.9l0.7,5.5c3.6,30.8-10.9,53.2-37.9,58.5c-17.9,3.5-33.8-0.6-47.1-12.4c-2.3-2-4.6-3.2-5.4-3.3
			c-10.6,4-21.1,8.6-31.3,13l-0.7,0.3c-2.2,0.9-4.4,1.9-6.6,2.8l0.7,0.9c0.4,0.5,0.8,1,1.1,1.5c2.5,3.4,4.5,6,6.6,8.3
			c23.7,25.7,53.6,35.2,91.6,29.1C1471.4,331.5,1493.2,313.5,1503.7,283.3z M1453.8,191.5L1453.8,191.5
			c-9.9,9.9-22.9,15.3-36.7,15.3c0,0,0,0,0,0h-0.2c-27.8-0.1-50.4-23.2-50.3-51.5c0.1-28.2,21.8-49.5,50.5-49.6h0.2
			c14.1,0,27.3,5.4,37.1,15.2c9.4,9.3,14.6,21.6,14.6,34.6C1468.9,169,1463.5,181.8,1453.8,191.5z"/>
		<g>
			<rect x="1240.9" y="4.6" class="st3" width="48.4" height="42.4"/>
			<rect x="1242.7" y="78.5" class="st3" width="45" height="198.1"/>
		</g>
		<rect x="1148.4" y="2.3" class="st3" width="45" height="274.3"/>
		<path class="st3" d="M1115.8,80l-52.8,0l0-11.4c0-10.1,2.3-17.9,6.7-23c4.5-5.1,11.3-7.7,20.2-7.7c0,0,0,0,0,0
			c5,0,9.7,0.5,13.9,1.3c4,0.9,8.2,2,12.4,3.4l0-37.4c-4.8-1.4-10.2-2.7-15.8-3.7c-5.8-1-12.7-1.5-20.7-1.5c0,0,0,0,0,0
			c-19.4,0-34.6,5.3-45.1,15.9c-10.5,10.5-15.8,27-15.8,48.8l0,14.8l-25.3,0l0,37.1l25.3,0v0.5l-0.1,159.4l45,0l0.1-159.9l52,0
			L1115.8,80z"/>
		<path class="st3" d="M915.9,94.7c-17.5-12.8-38.4-19.6-60.4-19.6c0,0,0,0,0,0c-27.3,0-53.1,10.7-72.5,30
			c-19.4,19.4-30.1,45.1-30.1,72.5c0,27.4,10.5,53.5,29.7,73.4c19.5,20.3,45.4,31.5,72.8,31.5c0,0,0,0,0,0
			c27.4,0,53.2-11.2,72.8-31.4c18.2-18.9,28.8-43.6,29.7-69.5l0.2-180.1l-41.4,0l0,93.9L915.9,94.7z M855.4,241.1
			C855.4,241.1,855.4,241.1,855.4,241.1c-33.2,0-61.2-29.1-61.2-63.5c0-33.7,27.5-61.2,61.2-61.2c0,0,0,0,0,0
			c16.3,0,31.7,6.4,43.2,18c11.6,11.6,17.9,26.9,17.9,43.2C916.6,212.1,888.6,241.1,855.4,241.1z"/>
		<path class="st3" d="M612.7,280.5C612.7,280.5,612.7,280.5,612.7,280.5c15.1,0,27.7-3.5,37.3-10.4c9.7-6.9,17.9-15.2,24.3-24.8
			l0.9-1.4l0,32.4l45,0l0.1-198.1l-45,0l0,111.6c0,15.6-4.2,27.9-12.5,36.6c-8.3,8.7-19.2,13.1-32.5,13.1c0,0,0,0,0,0
			c-13.5,0-24.2-4.3-31.6-12.8c-7.4-8.5-11.1-20.7-11.1-36.3l0-112.4l-45,0l-0.1,126.2c0,23.2,6.1,41.8,18.3,55.5
			C572.9,273.6,590.3,280.5,612.7,280.5z"/>
		<path class="st3" d="M500.6,137.1c-5.2-12.5-12.6-23.5-21.9-32.9c-9.3-9.3-20.6-16.8-33.4-22.2c-12.8-5.4-27-8.1-42.2-8.1
			c0,0,0,0-0.1,0c-15.2,0-29.4,2.8-42.2,8.2c-12.8,5.5-24.1,13-33.4,22.3c-9.3,9.3-16.8,20.4-22.2,33c-5.4,12.6-8.1,26.1-8.1,40.3
			c0,14.2,2.6,27.6,7.9,40c5.2,12.3,12.6,23.3,21.9,32.7c9.3,9.4,20.6,16.8,33.4,22.2c12.8,5.4,26.9,8.1,41.9,8.1c0,0,0,0,0.1,0
			c15.2,0,29.4-2.8,42.4-8.2c12.9-5.5,24.3-13,33.6-22.3c9.3-9.3,16.8-20.4,22.2-32.8h0c5.4-12.4,8.1-26,8.1-40.2
			C508.5,163,505.9,149.5,500.6,137.1z M459.3,202.8c-2.8,7.7-6.8,14.5-12.1,20.3c-5.3,5.8-11.7,10.5-19.1,13.9
			c-7.4,3.4-15.8,5.1-25.1,5.1c0,0,0,0,0,0c-8.8,0-17-1.7-24.4-5.2c-7.4-3.4-13.9-8.1-19.3-13.9c-5.4-5.8-9.6-12.8-12.6-20.7
			c-3-7.9-4.5-16.4-4.5-25.3c0-8.8,1.4-17.2,4.2-24.9c2.8-7.7,6.8-14.5,12.1-20.3c5.3-5.8,11.7-10.5,19.1-13.9
			c7.4-3.4,15.7-5.1,24.7-5.1c0,0,0,0,0,0c9,0,17.3,1.7,24.7,5.1c7.4,3.4,13.9,8.1,19.3,14.1c5.4,5.9,9.6,12.9,12.6,20.7
			c3,7.8,4.5,16.3,4.5,25.1C463.5,186.8,462.1,195.2,459.3,202.8z"/>
		<rect x="217.6" y="1.9" class="st3" width="45" height="274.3"/>
		<path class="st3" d="M16.3,238c3.1,4.7,6.8,9.3,11.4,14c9.1,9.4,20.1,16.8,32.7,22.2c12.6,5.4,26.4,8.1,41.1,8.1
			c19.4,0,35.5-3.5,47.9-10.3c12.2-6.6,23.3-15.6,33.2-26.5l-26.9-26.7c-7.5,7.4-15.3,13.3-23.1,17.8c-8.2,4.7-17.9,7-28.8,7
			c-8.7,0-16.9-1.7-24.4-5.1c-7.3-3.4-13.7-8.1-19.1-14c-5.5-6-9.5-12.8-12.4-20.6c-2.9-7.9-4.3-16.5-4.3-25.5
			c0-5.6,0.6-10.9,1.7-15.8c-18.7,19.6-29,45.1-29,72.2C16.2,235.8,16.2,237,16.3,238z"/>
		<path class="st3" d="M150.6,79.3c-12.4-6.2-28.2-9.4-47-9.4c-14.7,0-28.6,2.8-41.2,8.3c-12.8,5.5-23.8,13.1-32.9,22.6
			c-9.3,9.6-16.6,20.7-21.7,33.1C2.6,146.4,0,159.9,0,174.1c0,5.8,0.4,11.6,1.3,17.3c1.3-6,3.2-11.9,5.6-17.8
			c5.2-12.5,12.6-23.8,21.9-33.5c9.3-9.6,20.5-17.3,33.2-22.8c11.6-5,24.3-7.8,37.8-8.3c1.9-0.1,3.9-0.1,5.8,0c0.7,0,1.4,0,2.2,0
			c9.8,0.5,18,2.8,25.2,7c7.8,4.6,15.3,10.6,22.3,17.7l27.7-29.9C173.6,93.7,162.8,85.4,150.6,79.3z"/>
		<path class="st3" d="M184.1,323.6c0-9.5-7.7-17.4-17.2-17.5l0,0c-0.1,0-0.2,0-0.3,0H25.5v0l-0.5,0c-0.1,0-0.1,0-0.2,0
			c-0.1,0-0.1,0-0.2,0c-0.1,0-0.2,0-0.3,0c-0.1,0-0.2,0-0.3,0c-9.5,0.2-17.3,8-17.3,17.5c0,9.5,7.7,17.4,17.2,17.5l142.9,0
			C176.4,341,184.1,333.2,184.1,323.6z"/>
	</g>
</g>
<g id="Ebene_2">
</g>
</svg>
